# xmcd
#
# Track frame offsets:
#	150
#	24141
#	49263
#	72361
#	97268
#	117994
#	141344
#	164675
#	184247
#	205834
#
# Disc length: 3044 seconds
#
# Revision: 2
# Processed by: cddbd v1.5.2PL0 Copyright (c) Steve Scherf et al.
# Submitted via: EZCDAudioConverter 8.0.2.1
#
DISCID=960be20a
DTITLE=Hương Lan - Hát Từ Nguồn Cội
DYEAR=2007
DGENRE=East Asia
TTITLE0=Hát từ cội nguồn
TTITLE1=Ngồi buồn nhớ mẹ
TTITLE2=Công cha nghĩa nặng
TTITLE3=Thiêng liêng tình mẹ
TTITLE4=Ống thổi lửa
TTITLE5=À ơi nghe tiếng mẹ ru
TTITLE6=Ngày mẹ đi
TTITLE7=Ngày xưa mẹ đứng ru con
TTITLE8=Trở về với mẹ ta thôi
TTITLE9=Ngàn năm ca dao mẹ
EXTD=
EXTT0=
EXTT1=
EXTT2=
EXTT3=
EXTT4=
EXTT5=
EXTT6=
EXTT7=
EXTT8=
EXTT9=
PLAYORDER=
